# xmcd
#
# Track frame offsets: 
#        150
#        10908
#        21985
#        32695
#        43399
#        52924
#        64025
#        75350
#        85617
#        95577
#        108269
#        119824
#        132639
#        144911
#        158273
#        171205
#        181681
#        194684
#        207189
#        216602
#        228767
#
# Disc length: 3206 seconds
#
# Revision: 0
# Processed by: cddbd v1.5.2PL0 Copyright (c) Steve Scherf et al.
# Submitted via: ExactAudioCopy v1.0b3
#
DISCID=1c0c8415
DTITLE=Patsy Cline and Merle Haggard - Country Royalty Disc 3
DYEAR=2004
DGENRE=Country
TTITLE0=Patsy Cline - Honky Tonk Merry Go Round
TTITLE1=Patsy Cline - A Stranger In My Arms
TTITLE2=Patsy Cline - Got A Lot Of Rythm In My Soul
TTITLE3=Patsy Cline - I Can See An Angel Walkin'
TTITLE4=Patsy Cline - I'm Moving Along
TTITLE5=Patsy Cline - Stop The World (And Let Me Off)
TTITLE6=Patsy Cline - That Wonderful Someone
TTITLE7=Patsy Cline - Walking Dream
TTITLE8=Patsy Cline - Turn The Cards Slowly
TTITLE9=Patsy Cline - Yes, I Understand
TTITLE10=Patsy Cline - Crazy Dreams
TTITLE11=Merle Haggard - Sing Me Back Home
TTITLE12=Merle Haggard - The Roots Of My Raising
TTITLE13=Merle Haggard - The Farmer's Daughter
TTITLE14=Merle Haggard - Kentucky Gambler
TTITLE15=Merle Haggard - Someday We'll Look Back
TTITLE16=Merle Haggard - The Way I Am
TTITLE17=Merle Haggard - Silver Wings
TTITLE18=Merle Haggard - The Legend Of Bonnie And Clyde
TTITLE19=Merle Haggard - Tonight The Bottle Let Me Down
TTITLE20=Merle Haggard - From Graceland To The Promised Land
EXTD=
EXTT0=
EXTT1=
EXTT2=
EXTT3=
EXTT4=
EXTT5=
EXTT6=
EXTT7=
EXTT8=
EXTT9=
EXTT10=
EXTT11=
EXTT12=
EXTT13=
EXTT14=
EXTT15=
EXTT16=
EXTT17=
EXTT18=
EXTT19=
EXTT20=
PLAYORDER=
